<svg xmlns="http://www.w3.org/2000/svg" viewBox="0 0 64 64" fill="none">
  <defs>
    <linearGradient id="brainGrad" x1="0%" y1="0%" x2="100%" y2="100%">
      <stop offset="0%" stop-color="#06b6d4"/>
      <stop offset="50%" stop-color="#14b8a6"/>
      <stop offset="100%" stop-color="#0891b2"/>
    </linearGradient>
    <linearGradient id="circuitGrad" x1="0%" y1="0%" x2="100%" y2="100%">
      <stop offset="0%" stop-color="#22d3ee"/>
      <stop offset="100%" stop-color="#2dd4bf"/>
    </linearGradient>
  </defs>
  <!-- Outer circle -->
  <circle cx="32" cy="32" r="30" stroke="url(#brainGrad)" stroke-width="2" fill="none" opacity="0.3"/>
  <!-- Brain shape -->
  <path d="M32 12c-8 0-14 5-14 12 0 4 2 7 5 9l1 1v6c0 2 2 4 4 4h8c2 0 4-2 4-4v-6l1-1c3-2 5-5 5-9 0-7-6-12-14-12z" fill="url(#brainGrad)" opacity="0.9"/>
  <!-- Brain fold lines -->
  <path d="M26 22c2-1 4-1 6 0s4 1 6 0" stroke="white" stroke-width="1.2" stroke-linecap="round" fill="none" opacity="0.6"/>
  <path d="M25 27c3-1 5-1 7 0s5 1 7 0" stroke="white" stroke-width="1.2" stroke-linecap="round" fill="none" opacity="0.6"/>
  <path d="M27 32c2-1 3-1 5 0s3 1 5 0" stroke="white" stroke-width="1.2" stroke-linecap="round" fill="none" opacity="0.6"/>
  <!-- Circuit nodes -->
  <circle cx="20" cy="20" r="2" fill="url(#circuitGrad)"/>
  <circle cx="44" cy="20" r="2" fill="url(#circuitGrad)"/>
  <circle cx="16" cy="32" r="2" fill="url(#circuitGrad)"/>
  <circle cx="48" cy="32" r="2" fill="url(#circuitGrad)"/>
  <circle cx="20" cy="44" r="2" fill="url(#circuitGrad)"/>
  <circle cx="44" cy="44" r="2" fill="url(#circuitGrad)"/>
  <!-- Circuit lines -->
  <line x1="20" y1="20" x2="24" y2="18" stroke="url(#circuitGrad)" stroke-width="1" opacity="0.7"/>
  <line x1="44" y1="20" x2="40" y2="18" stroke="url(#circuitGrad)" stroke-width="1" opacity="0.7"/>
  <line x1="16" y1="32" x2="20" y2="28" stroke="url(#circuitGrad)" stroke-width="1" opacity="0.7"/>
  <line x1="48" y1="32" x2="44" y2="28" stroke="url(#circuitGrad)" stroke-width="1" opacity="0.7"/>
  <line x1="20" y1="44" x2="26" y2="40" stroke="url(#circuitGrad)" stroke-width="1" opacity="0.7"/>
  <line x1="44" y1="44" x2="38" y2="40" stroke="url(#circuitGrad)" stroke-width="1" opacity="0.7"/>
  <!-- AI text indicator -->
  <text x="32" y="54" text-anchor="middle" font-family="system-ui, sans-serif" font-size="7" font-weight="bold" fill="url(#circuitGrad)">AI</text>
</svg>
